<?xml version="1.0" standalone="no"?>
<!DOCTYPE svg PUBLIC "-//W3C//DTD SVG 20010904//EN"
 "http://www.w3.org/TR/2001/REC-SVG-20010904/DTD/svg10.dtd">
<svg version="1.0" xmlns="http://www.w3.org/2000/svg"
 width="1563.000000pt" height="1563.000000pt" viewBox="0 0 1563.000000 1563.000000"
 preserveAspectRatio="xMidYMid meet">
<metadata>
Created by potrace 1.14, written by Peter Selinger 2001-2017
</metadata>
<g transform="translate(0.000000,1563.000000) scale(0.100000,-0.100000)"
fill="#000000" stroke="none">
<path d="M0 7815 l0 -7815 7815 0 7815 0 0 7815 0 7815 -7815 0 -7815 0 0
-7815z m9206 2494 c20 -17 15 -70 -21 -214 -32 -126 -56 -194 -115 -320 -97
-209 -200 -354 -366 -516 -135 -132 -164 -157 -290 -252 l-101 -76 -6 -128
c-9 -187 -37 -346 -68 -379 -44 -48 -431 -342 -582 -444 -78 -52 -127 -66
-166 -45 -67 34 -74 74 -37 199 41 137 86 316 86 341 0 30 2 30 -95 5 -43 -11
-110 -20 -148 -20 l-69 0 -62 63 c-83 84 -166 209 -166 250 0 17 21 70 50 124
28 51 50 95 50 98 0 2 -118 1 -263 -2 -145 -3 -275 -3 -289 0 -31 8 -68 63
-68 101 0 40 21 66 123 147 94 75 171 140 379 318 181 155 151 146 483 146
l280 0 135 108 c446 356 843 525 1212 513 64 -2 103 -8 114 -17z m-2461 -1694
c20 -19 25 -35 25 -71 0 -58 -3 -61 -325 -335 -490 -416 -479 -407 -511 -415
-55 -14 -114 39 -114 102 0 32 42 75 209 214 148 123 434 368 536 459 69 62
84 71 118 71 27 0 45 -7 62 -25z m130 -436 c27 -13 42 -38 50 -81 8 -44 -14
-71 -164 -201 -58 -50 -108 -94 -111 -97 -3 -3 -52 -46 -110 -95 -57 -49 -138
-122 -180 -161 -104 -96 -122 -108 -164 -100 -40 8 -86 56 -86 90 0 32 25 61
138 162 164 148 302 275 397 365 142 137 166 149 230 118z m186 -458 c25 -25
29 -37 29 -82 l0 -52 -123 -126 c-67 -69 -185 -193 -262 -275 -181 -191 -201
-202 -261 -142 -28 28 -34 41 -34 77 0 40 5 47 108 153 60 61 168 176 241 256
217 237 241 252 302 191z m1349 -40 c157 -35 251 -92 333 -200 59 -79 87 -154
99 -266 14 -139 18 -135 -110 -135 -59 0 -130 3 -158 6 l-52 6 0 46 c-3 137
-58 210 -171 232 -71 13 -445 13 -494 -1 -118 -32 -181 -179 -124 -289 52
-103 124 -127 410 -135 335 -10 444 -40 573 -158 108 -99 142 -177 151 -348 6
-120 -12 -226 -54 -315 -29 -62 -102 -140 -166 -177 -54 -32 -201 -81 -219
-74 -7 3 -4 6 7 6 12 1 25 5 31 11 5 5 22 11 37 12 14 1 29 8 31 15 3 7 14 13
25 13 11 0 23 5 26 11 4 5 17 15 28 20 68 30 155 102 149 123 -2 5 6 18 16 30
17 18 44 80 48 111 1 6 3 12 4 15 1 3 3 22 4 43 1 25 -3 37 -12 37 -7 0 -12 6
-11 13 6 44 -1 57 -31 57 -16 0 -30 -4 -30 -10 0 -5 -20 -10 -45 -10 -25 0
-45 -4 -45 -9 0 -5 -9 -11 -20 -14 -10 -3 -19 -2 -18 2 4 32 -13 15 -58 -60
-24 -40 -49 -69 -61 -69 -7 0 -22 -13 -34 -30 -17 -22 -26 -27 -35 -19 -10 8
-26 7 -59 -4 -25 -9 -45 -12 -45 -6 0 5 6 9 14 9 55 0 156 76 182 137 21 48
18 156 -5 201 -55 106 -125 128 -451 136 -226 5 -305 20 -428 77 -131 60 -212
156 -248 292 -19 72 -18 240 2 308 51 172 185 306 354 353 80 22 93 23 345 24
192 1 244 -2 315 -17z m955 11 c7 -5 11 -135 10 -387 l0 -380 485 0 485 0 5
385 5 385 140 3 c77 1 150 0 163 -3 l22 -5 0 -881 c0 -584 -3 -878 -10 -874
-5 3 -10 28 -10 55 0 27 -5 80 -10 117 -6 38 -13 94 -16 126 -5 55 -6 57 -35
57 -16 0 -29 -6 -30 -12 0 -10 -2 -10 -6 0 -2 6 -12 12 -20 12 -9 0 -13 -6
-10 -15 7 -17 -11 -31 -37 -26 -11 1 -16 -2 -12 -8 4 -6 0 -11 -9 -11 -9 0
-27 -8 -41 -17 -25 -16 -26 -16 -23 2 2 11 14 22 25 25 18 4 20 9 13 28 -14
38 -42 24 -45 -23 -1 -22 -8 -109 -14 -194 -13 -173 -14 -170 55 -172 22 0 49
-4 60 -9 13 -6 -9 -9 -67 -9 l-88 -1 -2 376 -3 376 -480 -2 c-263 0 -480 -2
-482 -4 -2 -2 -6 -168 -10 -370 l-6 -366 -26 1 c-16 0 -20 3 -11 6 24 10 27
20 19 86 -4 34 -5 72 -2 84 2 12 2 27 -3 34 -4 7 -9 26 -10 43 -2 17 -6 40 -8
51 -3 11 -5 24 -5 28 -1 5 -5 5 -11 2 -6 -4 -10 7 -10 25 l0 31 -84 -3 c-46
-2 -82 0 -79 5 6 9 -6 47 -16 47 -4 0 -7 -8 -8 -17 -1 -10 -6 -46 -12 -80 -5
-34 -9 -127 -8 -206 2 -142 2 -143 -20 -145 l-23 -2 0 920 0 920 153 0 c83 0
157 -4 162 -8z m3055 -7 c171 -7 328 -74 433 -184 98 -102 141 -203 156 -362
27 -285 -81 -513 -289 -611 -134 -64 -167 -68 -557 -75 l-353 -6 0 -289 c0
-244 -2 -288 -14 -288 -19 0 -29 17 -16 25 13 8 4 246 -9 255 -8 4 -17 62 -20
128 -2 24 -20 12 -23 -15 -3 -26 -7 -28 -53 -31 -27 -2 -54 -7 -60 -12 -11 -9
-55 22 -55 40 0 6 -4 8 -10 5 -5 -3 -9 -16 -9 -28 0 -12 -4 -39 -9 -60 -6 -20
-11 -98 -11 -171 -2 -131 -1 -134 19 -129 12 3 20 0 20 -6 0 -8 -14 -11 -37
-9 l-38 3 -3 912 -2 913 292 2 c298 3 477 1 648 -7z m-7615 -20 c309 -85 573
-380 636 -707 17 -87 15 -286 -4 -390 -48 -266 -216 -492 -458 -618 -260 -135
-626 -126 -888 23 -155 88 -303 263 -370 436 -103 267 -72 622 75 858 63 102
199 238 291 292 88 52 204 98 293 117 89 18 343 12 425 -11z m878 -3 c10 -9
98 -123 195 -252 97 -129 202 -266 233 -305 219 -273 532 -685 532 -702 0 -7
4 -10 8 -8 8 6 23 -25 20 -40 -2 -5 1 -7 5 -3 8 9 34 -10 34 -24 0 -6 -7 -5
-15 2 -13 11 -14 10 -9 -3 3 -9 14 -19 24 -22 13 -4 17 -12 13 -22 -5 -13 -2
-15 11 -10 16 6 17 3 11 -32 -4 -26 -2 -41 6 -47 9 -5 10 -2 6 9 -3 10 -3 17
1 17 14 0 35 -71 24 -82 -7 -7 -5 -22 5 -45 17 -41 11 -63 -15 -63 -10 0 -24
-6 -31 -12 -11 -10 -13 -10 -7 0 6 9 -17 12 -99 12 l-105 0 16 -25 c13 -21 14
-28 3 -41 -10 -12 -10 -14 0 -12 7 2 16 -4 20 -12 32 -63 31 -64 -6 -25 -58
62 -83 97 -76 108 3 6 1 7 -4 4 -14 -9 -37 19 -27 34 4 7 3 9 -3 6 -5 -3 -28
18 -50 46 -163 207 -204 257 -212 257 -5 0 -42 -43 -82 -96 -149 -194 -300
-384 -305 -384 -7 0 53 86 88 126 17 19 27 34 23 34 -4 0 3 9 16 20 21 17 22
21 9 30 -11 7 -16 5 -18 -5 -4 -16 -12 -18 -49 -15 -13 1 -23 -2 -23 -7 0 -4
-34 -7 -76 -5 -53 3 -77 8 -81 18 -3 8 -11 14 -18 14 -8 0 -17 5 -21 12 -5 8
-2 9 9 5 10 -3 17 -2 17 3 0 6 -7 10 -16 10 -10 0 -14 6 -10 15 6 17 -23 50
-35 38 -5 -5 -10 -18 -12 -30 -5 -34 -15 -38 -23 -9 -5 19 -1 31 13 44 20 18
22 30 10 49 -8 12 52 95 246 340 l98 124 -23 32 c-79 113 -555 721 -660 845
-43 50 -78 94 -78 99 0 4 107 7 237 5 207 -2 240 -5 256 -20z m5557 -881 l0
-908 -67 -6 c-38 -4 -112 -7 -165 -7 l-98 0 0 915 0 915 165 0 165 0 0 -909z
m-7716 729 c0 -91 -1 -497 -2 -902 l-2 -738 -180 0 c-99 0 -181 1 -182 3 -1 1
-5 298 -8 659 l-5 657 -100 -61 c-55 -34 -159 -99 -232 -144 -73 -45 -134 -79
-137 -76 -4 3 -6 98 -6 211 l0 206 273 177 272 178 155 -3 155 -2 -1 -165z
m4175 -1092 c10 -66 20 -94 48 -136 20 -29 49 -60 64 -69 28 -17 38 -33 20
-33 -5 0 -11 7 -15 15 -3 9 -12 12 -22 8 -12 -4 -15 -3 -10 5 4 7 3 12 -2 12
-16 0 -85 68 -79 77 3 5 1 15 -5 23 -8 12 -9 11 -4 -5 l6 -20 -15 20 c-9 11
-17 29 -19 40 -14 72 -23 99 -40 109 -14 8 -20 8 -23 -1 -6 -15 -39 -17 -48
-3 -8 13 -60 13 -107 0 -29 -8 -35 -14 -31 -30 3 -11 10 -20 15 -20 6 0 7 -13
2 -32 -9 -42 -6 -130 5 -138 4 -3 11 -16 14 -30 3 -14 8 -35 11 -48 6 -28 69
-115 101 -141 14 -10 22 -21 19 -23 -3 -3 2 -8 11 -11 8 -4 15 -1 15 6 1 7 6
3 13 -8 7 -11 17 -21 22 -22 6 -1 42 -18 80 -38 56 -29 63 -35 36 -31 -49 9
-148 60 -213 111 -61 49 -115 124 -141 195 -17 44 -37 189 -37 263 l0 37 158
0 158 0 13 -82z m-2119 -208 c-6 -11 -13 -20 -16 -20 -2 0 0 9 6 20 6 11 13
20 16 20 2 0 0 -9 -6 -20z m2463 -47 c-24 -2 -62 -2 -85 0 -24 2 -5 4 42 4 47
0 66 -2 43 -4z m-1463 -195 c0 -12 -3 -18 -7 -14 -10 10 -11 46 -1 40 4 -3 8
-15 8 -26z m4090 -78 c0 -14 -6 -20 -22 -19 -17 1 -19 2 -5 6 9 2 17 11 17 19
0 8 2 14 5 14 3 0 5 -9 5 -20z m-2795 -18 c-8 -8 -76 9 -70 18 3 4 21 3 40 -3
19 -6 33 -12 30 -15z m-1217 1 c-10 -2 -26 -2 -35 0 -10 3 -2 5 17 5 19 0 27
-2 18 -5z m135 0 c-7 -2 -19 -2 -25 0 -7 3 -2 5 12 5 14 0 19 -2 13 -5z m75 0
c-10 -2 -26 -2 -35 0 -10 3 -2 5 17 5 19 0 27 -2 18 -5z m85 0 c-13 -2 -33 -2
-45 0 -13 2 -3 4 22 4 25 0 35 -2 23 -4z m1262 -7 c11 -2 -54 -3 -145 -3 -106
0 -140 3 -95 6 66 6 197 4 240 -3z m183 -3 c-10 -2 -28 -2 -40 0 -13 2 -5 4
17 4 22 1 32 -1 23 -4z m3215 0 c-7 -2 -19 -2 -25 0 -7 3 -2 5 12 5 14 0 19
-2 13 -5z"/>
<path d="M8846 10090 c-375 -79 -712 -283 -1108 -674 -130 -128 -378 -405
-378 -421 0 -16 76 -118 142 -191 31 -33 58 -54 72 -54 12 0 84 31 161 68 386
189 802 515 991 778 101 141 203 357 227 482 8 37 14 37 -107 12z"/>
<path d="M7374 9511 c-115 -5 -156 -10 -176 -23 -40 -26 -353 -288 -356 -299
-2 -5 78 -9 203 -9 l207 0 37 38 c146 152 269 291 264 296 -4 3 -11 5 -17 4
-6 -1 -79 -4 -162 -7z"/>
<path d="M7220 8801 c-16 -31 -12 -51 18 -85 15 -17 34 -42 42 -54 14 -20 18
-21 55 -10 22 6 42 13 44 15 6 4 -130 153 -140 153 -4 0 -13 -9 -19 -19z"/>
<path d="M8075 8770 c-10 -11 -81 -51 -159 -90 -77 -39 -144 -77 -148 -83 -3
-7 -16 -62 -27 -124 -22 -121 -59 -244 -75 -255 -6 -4 -7 -10 -3 -14 4 -4 15
0 24 8 10 8 79 67 153 130 246 210 238 199 255 302 24 141 19 170 -20 126z"/>
<path d="M7610 8230 c0 -5 -6 -7 -14 -4 -11 4 -16 -4 -18 -28 -2 -24 -8 -32
-19 -30 -9 1 -21 -8 -27 -20 l-11 -23 -1 25 c-1 17 -6 10 -15 -25 -8 -27 -19
-51 -25 -53 -5 -2 -10 -21 -10 -41 0 -50 32 -81 78 -74 17 3 32 9 32 13 0 5
20 16 45 26 40 15 49 24 46 46 0 3 13 11 29 17 17 5 30 15 30 21 0 6 8 14 18
18 38 17 81 48 85 62 3 8 8 22 11 31 6 13 0 18 -28 21 -29 3 -37 0 -42 -15 -5
-14 -13 -17 -40 -14 -19 3 -31 1 -28 -4 3 -5 -1 -9 -10 -9 -8 0 -17 6 -19 13
-4 9 -6 9 -6 0 -1 -7 -8 -10 -16 -7 -9 4 -15 0 -15 -7 0 -10 -3 -11 -8 -3 -4
7 -16 14 -27 17 -17 4 -16 5 5 7 23 1 24 2 5 11 -17 8 -16 9 8 5 26 -3 27 -3
11 15 -19 21 -24 23 -24 9z"/>
<path d="M7550 8221 c0 -6 5 -13 10 -16 6 -3 10 1 10 9 0 9 -4 16 -10 16 -5 0
-10 -4 -10 -9z"/>
<path d="M5909 7859 c19 -18 25 -19 32 -8 15 23 10 29 -23 29 l-32 0 23 -21z"/>
<path d="M7012 7653 c2 -9 8 -18 15 -20 7 -3 9 3 6 16 -6 25 -26 28 -21 4z"/>
<path d="M6814 7471 c16 -17 16 -19 -2 -23 -11 -3 -27 -1 -37 5 -13 7 -16 6
-11 -2 4 -6 1 -11 -9 -11 -9 0 -18 -12 -21 -30 -4 -16 -15 -32 -25 -35 -11 -4
-19 -14 -19 -23 0 -9 -5 -24 -11 -32 -9 -12 -10 -11 -6 8 3 12 2 22 -1 22 -15
-1 -53 -40 -48 -49 4 -5 -2 -15 -11 -21 -13 -8 -14 -13 -5 -16 6 -3 12 -13 12
-21 0 -9 -3 -13 -7 -10 -3 4 -12 2 -20 -5 -19 -16 -30 -1 -15 22 20 32 6 23
-52 -34 -30 -29 -57 -51 -60 -49 -3 3 -3 -6 0 -21 3 -19 0 -26 -11 -26 -8 0
-15 -7 -15 -15 0 -8 5 -15 10 -15 6 0 10 -6 10 -14 0 -24 47 -31 78 -13 6 5
12 5 12 2 0 -3 19 15 43 41 23 26 41 51 39 56 -1 5 2 7 8 3 5 -3 10 -1 10 5 0
6 5 8 10 5 6 -3 10 3 10 14 0 12 7 21 16 21 8 0 13 4 10 9 -7 11 28 43 38 34
4 -4 4 0 0 10 -3 10 -1 18 5 18 6 1 17 2 24 3 6 0 12 8 12 16 1 8 7 14 14 12
7 -1 10 2 6 8 -3 5 8 23 25 38 19 18 28 34 25 44 -4 9 0 18 10 22 13 5 11 11
-15 36 -34 33 -53 41 -26 11z"/>
<path d="M8710 6446 c0 -8 71 -12 76 -4 3 4 -13 8 -35 8 -23 0 -41 -2 -41 -4z"/>
<path d="M8435 6180 c3 -5 8 -10 11 -10 2 0 4 5 4 10 0 6 -5 10 -11 10 -5 0
-7 -4 -4 -10z"/>
<path d="M10595 6360 c-4 -6 -3 -16 3 -22 13 -13 23 4 13 21 -7 10 -10 10 -16
1z"/>
<path d="M10537 6323 c-25 -6 -11 -23 19 -23 15 0 24 5 22 12 -5 14 -17 17
-41 11z"/>
<path d="M9312 6245 c0 -16 2 -22 5 -12 2 9 2 23 0 30 -3 6 -5 -1 -5 -18z"/>
<path d="M11810 7076 c0 -162 3 -296 8 -298 4 -2 160 -1 347 2 l340 5 46 27
c102 60 146 152 136 285 -9 125 -52 193 -157 249 -32 17 -66 19 -377 22 l-343
3 0 -295z"/>
<path d="M11640 6319 c0 -5 9 -9 20 -9 11 0 20 2 20 4 0 2 -9 6 -20 9 -11 3
-20 1 -20 -4z"/>
<path d="M11596 6244 c-4 -10 -1 -14 6 -12 15 5 23 28 10 28 -5 0 -13 -7 -16
-16z"/>
<path d="M4455 7288 c-172 -32 -328 -173 -391 -351 -54 -152 -30 -328 61 -467
109 -165 309 -252 511 -223 156 22 316 136 382 273 107 218 70 453 -98 620
-129 130 -291 181 -465 148z"/>
<path d="M5629 6272 c-22 -26 -12 -48 12 -26 19 17 26 44 11 44 -4 0 -14 -8
-23 -18z"/>
<path d="M5620 6216 c0 -2 7 -9 15 -16 12 -10 15 -10 15 4 0 9 -7 16 -15 16
-8 0 -15 -2 -15 -4z"/>
<path d="M5976 6165 c-3 -8 -2 -15 3 -15 5 0 14 7 21 15 10 12 10 15 -3 15 -8
0 -17 -7 -21 -15z"/>
<path d="M6760 6170 c0 -5 5 -10 11 -10 5 0 7 5 4 10 -3 6 -8 10 -11 10 -2 0
-4 -4 -4 -10z"/>
<path d="M5698 6144 c-5 -4 -8 -16 -8 -28 0 -14 3 -17 11 -9 6 6 9 19 7 28 -1
9 -6 13 -10 9z"/>
<path d="M6520 5991 c0 -6 4 -13 10 -16 6 -3 7 1 4 9 -7 18 -14 21 -14 7z"/>
<path d="M11145 6139 c19 -12 19 -12 0 -20 -11 -4 -37 -8 -57 -8 -21 -1 -38
-5 -38 -11 0 -5 -13 -10 -29 -10 -38 0 -43 -10 -43 -73 0 -29 -5 -62 -11 -75
-16 -34 -1 -41 93 -43 47 -1 93 -6 104 -11 13 -7 16 -7 12 1 -5 7 1 11 15 11
21 0 21 3 14 53 -4 28 -9 72 -11 97 -3 55 -23 94 -49 98 -20 2 -20 2 0 -9z"/>
</g>
</svg>
